<svg width="13" height="12" viewBox="0 0 13 12" fill="none" xmlns="http://www.w3.org/2000/svg">
<path fill-rule="evenodd" clip-rule="evenodd" d="M12.1726 8.8241C11.9653 8.56962 11.6919 8.40966 11.4016 8.34393C10.9119 8.23327 10.4983 7.90678 10.2452 7.4732L10.1801 7.36185C9.92353 6.92248 9.8666 6.39872 10.003 5.9086C10.1328 5.44254 10.0145 4.92198 9.64788 4.55538C9.45912 4.36662 9.22947 4.24367 8.98736 4.18655C8.49618 4.07067 8.07487 3.75684 7.82029 3.32094L7.75418 3.20766C7.49815 2.76925 7.43997 2.24665 7.57605 1.7576C7.71397 1.26226 7.5719 0.705348 7.14914 0.337201C6.63041 -0.114646 5.84125 -0.112036 5.32513 0.342904C4.71912 0.877388 4.69737 1.80293 5.25989 2.36554C5.44836 2.55391 5.67742 2.67675 5.91905 2.73407C6.40946 2.85034 6.83019 3.16388 7.08438 3.5992L7.15272 3.71634C7.40855 4.15446 7.46635 4.67658 7.33104 5.16554C7.2022 5.63111 7.32079 6.15061 7.68672 6.51663C7.8748 6.70472 8.10348 6.82737 8.34453 6.88478C8.83417 7.00154 9.25422 7.31488 9.50812 7.74962L9.58051 7.87353C9.83664 8.31233 9.89405 8.83521 9.75826 9.32485C9.62894 9.79062 9.74733 10.3107 10.1135 10.6769C10.6764 11.2397 11.6027 11.2177 12.137 10.6107C12.5796 10.1078 12.5958 9.34351 12.1726 8.8241ZM7.31896 8.82429C7.11241 8.57058 6.84015 8.41072 6.55087 8.34461C6.05997 8.23249 5.64514 7.90581 5.39143 7.47097L5.33267 7.37007C5.07287 6.92489 5.01816 6.39543 5.15222 5.89777C5.28502 5.40524 5.14188 4.85384 4.7225 4.4884C4.20368 4.03645 3.41442 4.03897 2.89839 4.4941C2.29229 5.02849 2.27054 5.95402 2.83306 6.51663C3.01815 6.70172 3.24247 6.8235 3.47937 6.88207C3.97635 7.00492 4.40462 7.31904 4.66258 7.76122L4.72144 7.86232C4.98134 8.30788 5.03537 8.83753 4.9015 9.33568C4.77711 9.79874 4.89648 10.3135 5.25989 10.6769C5.82269 11.2397 6.74891 11.2177 7.2832 10.6107C7.72586 10.1078 7.7421 9.3437 7.31896 8.82429ZM2.77352 9.69638C2.77352 10.4623 2.15263 11.0831 1.38676 11.0831C0.620891 11.0831 0 10.4623 0 9.69638C0 8.93042 0.620891 8.30962 1.38676 8.30962C2.15263 8.30962 2.77352 8.93042 2.77352 9.69638Z" fill="url(#paint0_linear)"/>
<defs>
<linearGradient id="paint0_linear" x1="-2.24689" y1="5.90818" x2="4.33446" y2="16.2804" gradientUnits="userSpaceOnUse">
<stop stop-color="#6B32FF"/>
<stop offset="0.250271" stop-color="#3023AE"/>
<stop offset="1" stop-color="#C96DD8"/>
</linearGradient>
</defs>
</svg>
